# xmcd
#
# Track frame offsets: 
#        150
#        15350
#        34085
#        48060
#        65637
#        81730
#        96950
#        115475
#        140265
#        164620
#        180195
#        195670
#        227077
#        242030
#        279162
#        314405
#
# Disc length: 4545 seconds
#
# Revision: 0
# Processed by: cddbd v1.5.2PL0 Copyright (c) Steve Scherf et al.
# Submitted via: ExactAudioCopy v1.0b1
#
DISCID=d511bf10
DTITLE=Various Artist - Hi Honey, I'm Home! [CD-2)
DYEAR=2001
DGENRE=Oldies
TTITLE0=The Nolans - I'm In The Mood For Dancing
TTITLE1=Toni Basil - Mickey
TTITLE2=Miquel Brown - So Many Men, So Little Time
TTITLE3=Paul Lekakis - Boom Boom (Let's Go Back To My Room)
TTITLE4=Body Heat - No! Mr Boom Boom
TTITLE5=Man 2 Man - I Need A Man
TTITLE6=2 in a Room - Wiggle It
TTITLE7=Sabrina - Boys (Summertime Love)
TTITLE8=Weather Girls - It's Raining Men
TTITLE9=Village People - Macho Man
TTITLE10=Gloria Gaynor - I Am What I Am
TTITLE11=Michael Zager Band - Let's All Chants
TTITLE12=Patrick Hernandez - Born to be Alive
TTITLE13=Man 2 Man - Male Stripper
TTITLE14=Evelyn Thomas - High Energy
TTITLE15=Donna Summer - I Feel Love
EXTD=
EXTT0=
EXTT1=
EXTT2=
EXTT3=
EXTT4=
EXTT5=
EXTT6=
EXTT7=
EXTT8=
EXTT9=
EXTT10=
EXTT11=
EXTT12=
EXTT13=
EXTT14=
EXTT15=
PLAYORDER=
